<?xml version='1.0'?>
<svg xmlns="http://www.w3.org/2000/svg" xmlns:xlink="http://www.w3.org/1999/xlink" width="500.000000" height="198.239506">
<defs>
  <filter id="ds" x="0" y="0">
    <feOffset in="SourceAlpha" dx="2" dy="2" />
    <feComponentTransfer><feFuncA type="linear" slope="0.2"/></feComponentTransfer>
    <feGaussianBlur result="blurOut" stdDeviation="1" />
    <feBlend in="SourceGraphic" in2="blurOut" mode="normal" />
  </filter>
  <pattern id="disordered-hatch" patternUnits="userSpaceOnUse" width="4" height="4">
    <path d="M-1,1 l2,-2 M0,4 l4,-4 M3,5 l2,-2" stroke="#000000" opacity="0.3" />
  </pattern>
</defs>
<line x1="60.657143" x2="60.657143" y1="36.239506" y2="64.239506" stroke="#BABDB6" stroke-width="2"/><a xlink:title="S85L"><circle cx="60.657143" cy="36.239506" r="4.000000" fill="#000000" /></a><line x1="75.697143" x2="75.697143" y1="36.239506" y2="64.239506" stroke="#BABDB6" stroke-width="2"/><a xlink:title="R113C"><circle cx="75.697143" cy="36.239506" r="4.000000" fill="#000000" /></a><line x1="133.708571" x2="133.708571" y1="23.739506" y2="64.239506" stroke="#BABDB6" stroke-width="2"/><a xlink:title="A221V"><circle cx="133.708571" cy="23.739506" r="4.000000" fill="#000000" /></a><line x1="134.245714" x2="134.245714" y1="36.239506" y2="64.239506" stroke="#BABDB6" stroke-width="2"/><a xlink:title="P222F"><circle cx="134.245714" cy="36.239506" r="4.000000" fill="#000000" /></a><line x1="149.822857" x2="149.822857" y1="36.239506" y2="64.239506" stroke="#BABDB6" stroke-width="2"/><a xlink:title="H251Y"><circle cx="149.822857" cy="36.239506" r="4.000000" fill="#000000" /></a><line x1="167.548571" x2="167.548571" y1="36.239506" y2="64.239506" stroke="#BABDB6" stroke-width="2"/><a xlink:title="G284E"><circle cx="167.548571" cy="36.239506" r="4.000000" fill="#000000" /></a><line x1="195.480000" x2="195.480000" y1="36.239506" y2="64.239506" stroke="#BABDB6" stroke-width="2"/><a xlink:title="Q336K"><circle cx="195.480000" cy="36.239506" r="4.000000" fill="#ff0000" /></a><line x1="214.817143" x2="214.817143" y1="36.239506" y2="64.239506" stroke="#BABDB6" stroke-width="2"/><a xlink:title="P372F"><circle cx="214.817143" cy="36.239506" r="4.000000" fill="#ff0000" /></a><line x1="307.205714" x2="307.205714" y1="36.239506" y2="64.239506" stroke="#BABDB6" stroke-width="2"/><a xlink:title="P544L"><circle cx="307.205714" cy="36.239506" r="4.000000" fill="#000000" /></a><line x1="338.897143" x2="338.897143" y1="23.739506" y2="64.239506" stroke="#BABDB6" stroke-width="2"/><a xlink:title="P603L"><circle cx="338.897143" cy="23.739506" r="5.579835" fill="#000000" /></a><line x1="341.582857" x2="341.582857" y1="36.239506" y2="64.239506" stroke="#BABDB6" stroke-width="2"/><a xlink:title="G608N"><circle cx="341.582857" cy="36.239506" r="4.000000" fill="#ff0000" /></a><line x1="359.845714" x2="359.845714" y1="36.239506" y2="64.239506" stroke="#BABDB6" stroke-width="2"/><a xlink:title="H642Y"><circle cx="359.845714" cy="36.239506" r="4.000000" fill="#ff0000" /></a><line x1="459.754286" x2="459.754286" y1="36.239506" y2="64.239506" stroke="#BABDB6" stroke-width="2"/><a xlink:title="T828I"><circle cx="459.754286" cy="36.239506" r="4.000000" fill="#000000" /></a><a xlink:title="POP1_YEAST, Ribonucleases P/MRP protein subunit POP1 EC=3.1.26.5 (875aa)"><rect fill="#BABDB6" x="15.000000" y="64.239506" width="470.000000" height="14.000000"/></a><a xlink:title="transmembrane"><rect fill="#7FFFFF" x="313.651429" y="62.239506" width="8.594286" height="18.000000" filter="url(#ds)"/></a>
<a xlink:title="low_complexity"><rect fill="#C2DDFF" x="26.817143" y="62.239506" width="5.908571" height="18.000000" filter="url(#ds)"/></a>
<a xlink:title="low_complexity"><rect fill="#7FFFFF" x="315.262857" y="62.239506" width="6.445714" height="18.000000" filter="url(#ds)"/></a>
<g transform="translate(48.302857,59.239506)"><a xlink:href="http://pfam.xfam.org/family/PF06978" xlink:title="Ribonucleases P/MRP protein subunit POP1"><rect fill="#2dcf00" x="0" y="0" width="128.377143" height="24.000000" filter="url(#ds)"/></a></g>
<g transform="translate(313.114286,59.239506)"><a xlink:href="http://pfam.xfam.org/family/PF08170" xlink:title="POPLD (NUC188) domain"><rect fill="#ff5353" x="0" y="0" width="56.937143" height="24.000000" filter="url(#ds)"/></a></g>
<g class="axis">
<line x1="15.000000" x2="485.000000" y1="93.239506" y2="93.239506" stroke="#AAAAAA" /><line x1="15.000000" x2="15.000000" y1="93.239506" y2="98.239506" stroke="#AAAAAA" /><line x1="26.817143" x2="26.817143" y1="93.239506" y2="98.239506" stroke="#AAAAAA" /><text style="font-size:10px;font-family:Arial;fill:#000000;" text-anchor="middle" x="26.817143" y="108.239506">22</text><line x1="60.657143" x2="60.657143" y1="93.239506" y2="98.239506" stroke="#AAAAAA" /><text style="font-size:10px;font-family:Arial;fill:#000000;" text-anchor="middle" x="60.657143" y="108.239506">85</text><line x1="133.708571" x2="133.708571" y1="93.239506" y2="98.239506" stroke="#AAAAAA" /><text style="font-size:10px;font-family:Arial;fill:#000000;" text-anchor="middle" x="133.708571" y="108.239506">221</text><line x1="167.548571" x2="167.548571" y1="93.239506" y2="98.239506" stroke="#AAAAAA" /><text style="font-size:10px;font-family:Arial;fill:#000000;" text-anchor="middle" x="167.548571" y="108.239506">284</text><line x1="195.480000" x2="195.480000" y1="93.239506" y2="98.239506" stroke="#AAAAAA" /><text style="font-size:10px;font-family:Arial;fill:#000000;" text-anchor="middle" x="195.480000" y="108.239506">336</text><line x1="307.205714" x2="307.205714" y1="93.239506" y2="98.239506" stroke="#AAAAAA" /><text style="font-size:10px;font-family:Arial;fill:#000000;" text-anchor="middle" x="307.205714" y="108.239506">544</text><line x1="338.897143" x2="338.897143" y1="93.239506" y2="98.239506" stroke="#AAAAAA" /><text style="font-size:10px;font-family:Arial;fill:#000000;" text-anchor="middle" x="338.897143" y="108.239506">603</text><line x1="359.845714" x2="359.845714" y1="93.239506" y2="98.239506" stroke="#AAAAAA" /><text style="font-size:10px;font-family:Arial;fill:#000000;" text-anchor="middle" x="359.845714" y="108.239506">642</text><line x1="459.754286" x2="459.754286" y1="93.239506" y2="98.239506" stroke="#AAAAAA" /><text style="font-size:10px;font-family:Arial;fill:#000000;" text-anchor="middle" x="459.754286" y="108.239506">828</text><line x1="485.000000" x2="485.000000" y1="93.239506" y2="98.239506" stroke="#AAAAAA" /><text style="font-size:10px;font-family:Arial;fill:#000000;" text-anchor="middle" x="485.000000" y="108.239506">875</text></g>
<rect fill="#7FFFFF" x="4" y="122.239506" width="12" height="12" filter="url(#ds)"/><text style="font-size:12px;font-family:Arial;fill:#000000;" text-anchor="start" x="20" y="134.239506">Transmembrane region</text><rect fill="#7FFFFF" x="4" y="136.239506" width="12" height="12" filter="url(#ds)"/><text style="font-size:12px;font-family:Arial;fill:#000000;" text-anchor="start" x="20" y="148.239506">Low complexity region</text><rect fill="#2dcf00" x="4" y="150.239506" width="12" height="12" filter="url(#ds)"/><text style="font-size:12px;font-family:Arial;fill:#000000;" text-anchor="start" x="20" y="162.239506">Ribonucleases P/MRP protein subunit POP1</text><rect fill="#ff5353" x="4" y="164.239506" width="12" height="12" filter="url(#ds)"/><text style="font-size:12px;font-family:Arial;fill:#000000;" text-anchor="start" x="20" y="176.239506">POPLD (NUC188) domain</text></svg>
